Coordinates
version=1
nRows=13
nColumns=36
inDegrees=yes

Units are S.I. units (second, meters, Newtons, ...)
If the header above contains a line with 'inDegrees', this indicates whether rotational values are in degrees (yes) or radians (no).

endheader
time	pelvis_tilt	pelvis_list	pelvis_rotation	pelvis_tx	pelvis_ty	pelvis_tz	hip_flexion_r	hip_adduction_r	hip_rotation_r	knee_angle_r	knee_angle_r_beta	ankle_angle_r	subtalar_angle_r	mtp_angle_r	hip_flexion_l	hip_adduction_l	hip_rotation_l	knee_angle_l	knee_angle_l_beta	ankle_angle_l	subtalar_angle_l	mtp_angle_l	lumbar_extension	lumbar_bending	lumbar_rotation	arm_flex_r	arm_add_r	arm_rot_r	elbow_flex_r	pro_sup_r	arm_flex_l	arm_add_l	arm_rot_l	elbow_flex_l	pro_sup_l
     -1.71000000	    -45.09935538	      4.68801016	     -9.67026321	     -1.74160226	      1.08030381	     -0.23491746	     66.87691697	      7.47640671	      1.01084567	     24.58331682	      0.42905982	     -0.40081145	    -22.85547581	     -7.30849062	     75.17578848	     13.53990293	     13.22968821	     46.18610040	      0.80609952	     -9.71959833	    -33.41018589	     -7.30849062	     25.26501947	      3.09430243	      4.32371727	     23.81854191	     29.53528251	    -54.71500049	     37.99120067	     10.88321285	     25.32992668	     21.51482811	    -38.95469141	     36.04533831	    105.81559232
     -1.70000000	    -45.85330748	      5.60150088	     -9.94788631	     -1.73632421	      1.08238985	     -0.23670983	     67.64039462	      7.19800312	      1.66799784	     24.77462195	      0.43239872	     -0.91752418	    -22.79145645	     -7.32485708	     75.35416443	     14.31678941	     14.48591804	     44.92149805	      0.78402805	     -9.60989485	    -33.60046719	     -7.32485708	     26.17559693	      2.14179199	      2.48466217	     23.67473722	     30.44865718	    -59.51003175	     36.39202388	     10.68605526	     24.11218074	     22.48262834	    -43.07599351	     39.99342901	    103.41202306
     -1.69000000	    -46.57909078	      6.51688549	    -10.27405851	     -1.73144542	      1.08347575	     -0.23802384	     68.36675945	      7.02860258	      2.55286937	     24.77261126	      0.43236363	     -1.71680277	    -23.06013682	     -7.34034188	     75.47843354	     14.89191337	     15.58984849	     43.40650355	      0.75758640	     -9.50868416	    -33.74338284	     -7.34034188	     27.16405615	      1.35413273	      1.18467080	     23.31050347	     31.23934316	    -64.28926699	     35.80024466	     10.87610519	     23.16922229	     23.08368770	    -45.31021749	     42.71687293	    100.37785038
     -1.68000000	    -47.15690296	      7.33149633	    -10.64724170	     -1.72709960	      1.08323914	     -0.23851828	     68.90025353	      6.99020429	      3.52166793	     24.45059930	      0.42674346	     -2.68749815	    -23.50066070	     -7.34683633	     75.35721342	     15.18176596	     16.54826282	     41.44759655	      0.72339703	     -9.48436894	    -33.86100886	     -7.34683633	     28.17288364	      0.80307298	      0.22495713	     22.44221810	     31.83917475	    -66.85368636	     35.91386445	     10.98972657	     22.15908322	     23.12430372	    -45.79626832	     44.51232597	     98.99040682
     -1.67000000	    -47.39054131	      7.34318758	    -11.10073006	     -1.72348060	      1.08193307	     -0.23860974	     68.80160640	      7.35284856	      4.01450554	     23.49703045	      0.41010055	     -3.77094678	    -23.97313898	     -7.41344987	     74.74319018	     15.00907724	     17.95348098	     39.36804000	      0.68710192	     -9.33302362	    -33.90192531	     -7.41344987	     28.71624405	      1.37603010	     -0.78087220	     22.49231245	     32.57143472	    -72.69583447	     36.86230210	     10.74801794	     21.42073321	     23.00114815	    -45.40691222	     45.51816862	     92.11432748
     -1.66000000	    -47.52087170	      6.95237825	    -11.53495152	     -1.72083431	      1.07928525	     -0.23807107	     68.56002412	      7.93114734	      4.44377876	     22.27399930	      0.38875463	     -4.84734308	    -24.60386650	     -7.44352640	     73.96816951	     14.50949643	     19.39381379	     37.07923843	      0.64715479	     -9.10306550	    -33.94238836	     -7.44352640	     29.13390212	      2.40647440	     -1.99489376	     22.02571572	     33.00703124	    -74.94292373	     37.99432401	      9.51439883	     20.69990824	     22.78568352	    -45.82246339	     46.71898764	     93.93618674
     -1.65000000	    -47.50372305	      6.28850411	    -11.93944679	     -1.71916938	      1.07592829	     -0.23708538	     68.25810426	      8.63408381	      4.84195032	     20.99607686	      0.36645067	     -5.30937979	    -24.94421719	     -7.44779823	     73.09618252	     13.81187531	     20.81388830	     34.77915356	      0.60701074	     -8.63226712	    -33.95813304	     -7.44779823	     29.36267053	      3.71474022	     -2.78785994	     21.46697735	     33.18802557	    -75.73033118	     39.10777656	     13.49881157	     20.14332658	     22.29411783	    -44.74508328	     47.21225089	     92.75400120
     -1.64000000	    -47.27678915	      5.37912250	    -12.32740482	     -1.71822262	      1.07271256	     -0.23584931	     67.81316146	      9.49319843	      5.40238892	     19.62695979	      0.34255507	     -5.93478541	    -25.75243990	     -7.45122216	     72.13414231	     12.97546779	     22.22888685	     32.67240214	      0.57024099	     -7.80649942	    -33.95824105	     -7.45122216	     29.14612091	      5.18635091	     -3.62508043	     21.48349472	     33.61364751	    -77.72275217	     40.92892529	     13.83150801	     19.68348721	     22.05952479	    -44.60715204	     48.56796400	     94.17191735
     -1.63000000	    -46.84404420	      4.27189590	    -12.56376334	     -1.71737909	      1.07028954	     -0.23504783	     67.35235835	     10.24459456	      5.42910134	     18.43606175	      0.32176998	     -4.87374520	    -24.79875389	     -7.46490713	     71.13686477	     12.19645680	     23.60853481	     30.93563696	      0.53992872	     -6.49443715	    -33.94329043	     -7.46490713	     28.60933124	      6.64860879	     -4.33795588	     21.69196392	     33.84598147	    -79.01575409	     42.95402086	      7.35197483	     19.68281536	     21.88444367	    -45.23483481	     49.20842339	    101.03369654
     -1.62000000	    -46.33482500	      3.33531786	    -12.64236984	     -1.71625931	      1.06896388	     -0.23452708	     66.94868367	     10.84356471	      5.74354598	     17.24060965	      0.30090540	     -3.83134283	    -24.09303397	     -7.47436222	     70.23290501	     11.60951492	     24.80108893	     29.42593227	      0.51357940	     -5.06066488	    -33.94280884	     -7.47436222	     27.90895820	      7.73347919	     -4.65954844	     21.96499700	     33.98424811	    -80.19122472	     44.56912216	      7.35251862	     19.70683647	     21.57644923	    -44.60450453	     49.68460605	    102.77584779
     -1.61000000	    -45.94651488	      2.63279834	    -12.53305659	     -1.71447146	      1.06856316	     -0.23453983	     66.80490609	     11.22638483	      6.13008287	     16.07310988	      0.28052869	     -2.73083855	    -23.22573472	     -7.47784377	     69.60207191	     11.29474717	     25.88833760	     28.17525060	      0.49175089	     -3.63902192	    -33.94366015	     -7.47784377	     27.35555463	      8.47084442	     -4.99529049	     21.95249832	     34.13305057	    -80.50815180	     46.00048009	      9.88216987	     19.45307834	     21.21684280	    -43.37539712	     50.42381817	    102.11913590
     -1.60000000	    -45.15626374	      1.89245213	    -12.33455588	     -1.71141568	      1.07030544	     -0.23540361	     66.18586993	     11.39216509	      5.60165050	     14.70717632	      0.25668865	     -0.51211545	    -20.29172356	     -7.48029244	     68.64826517	     11.19104797	     27.05473127	     27.33186441	      0.47703102	     -2.16150914	    -33.95646494	     -7.48029244	     26.24283222	      9.10775105	     -5.18312351	     22.04166961	     33.66091902	    -80.20415461	     45.92438888	     15.20371479	     19.52790661	     20.93735124	    -42.23526063	     50.41506467	     98.89570394
     -1.59000000	    -44.44686186	      1.78330991	    -11.91866056	     -1.70775496	      1.07258580	     -0.23611461	     65.85663384	     11.21131548	      5.82174981	     13.54330550	      0.23637527	      0.26537691	    -19.00243616	     -7.48538801	     67.89717457	     11.49626646	     27.65160909	     26.48255340	      0.46220775	     -0.99410221	    -33.95787623	     -7.48538801	     25.36961037	      8.78155882	     -5.38437099	     22.29253940	     33.81619858	    -81.43470902	     47.40863335	      7.15586239	     19.54534056	     20.81188256	    -43.05338260	     50.87405149	    106.86156906
